<svg width="241" height="275" viewBox="0 0 241 275" fill="none" xmlns="http://www.w3.org/2000/svg">
<path d="M240.24 193.05V12.87C240.24 5.73787 234.502 0 227.37 0H51.48C23.0587 0 0 23.0587 0 51.48V223.08C0 251.501 23.0587 274.56 51.48 274.56H227.37C234.502 274.56 240.24 268.822 240.24 261.69V253.11C240.24 249.088 238.363 245.442 235.467 243.082C233.215 234.824 233.215 211.283 235.467 203.024C238.363 200.718 240.24 197.072 240.24 193.05ZM68.64 71.8575C68.64 70.0879 70.0879 68.64 71.8575 68.64H185.542C187.312 68.64 188.76 70.0879 188.76 71.8575V82.5825C188.76 84.3521 187.312 85.8 185.542 85.8H71.8575C70.0879 85.8 68.64 84.3521 68.64 82.5825V71.8575ZM68.64 106.177C68.64 104.408 70.0879 102.96 71.8575 102.96H185.542C187.312 102.96 188.76 104.408 188.76 106.177V116.902C188.76 118.672 187.312 120.12 185.542 120.12H71.8575C70.0879 120.12 68.64 118.672 68.64 116.902V106.177ZM204.526 240.24H51.48C41.9884 240.24 34.32 232.572 34.32 223.08C34.32 213.642 42.042 205.92 51.48 205.92H204.526C203.507 215.09 203.507 231.07 204.526 240.24Z" fill="black"/>
</svg>
