<svg width="58" height="58" viewBox="0 0 58 58" fill="none" xmlns="http://www.w3.org/2000/svg">
<path d="M45.9166 9.66666H12.0833C10.1604 9.66666 8.31637 10.4305 6.95673 11.7901C5.59709 13.1498 4.83325 14.9938 4.83325 16.9167V41.0833C4.83325 43.0062 5.59709 44.8502 6.95673 46.2099C8.31637 47.5695 10.1604 48.3333 12.0833 48.3333H45.9166C47.8394 48.3333 49.6835 47.5695 51.0431 46.2099C52.4028 44.8502 53.1666 43.0062 53.1666 41.0833V16.9167C53.1666 14.9938 52.4028 13.1498 51.0431 11.7901C49.6835 10.4305 47.8394 9.66666 45.9166 9.66666ZM44.2974 14.5L28.9999 25.9792L13.7024 14.5H44.2974ZM45.9166 43.5H12.0833C11.4423 43.5 10.8276 43.2454 10.3744 42.7922C9.9212 42.339 9.66659 41.7243 9.66659 41.0833V17.5208L27.5499 30.9333C27.9682 31.2471 28.477 31.4167 28.9999 31.4167C29.5228 31.4167 30.0316 31.2471 30.4499 30.9333L48.3333 17.5208V41.0833C48.3333 41.7243 48.0786 42.339 47.6254 42.7922C47.1722 43.2454 46.5575 43.5 45.9166 43.5Z" fill="white"/>
</svg>
