<svg width="241" height="241" viewBox="0 0 241 241" fill="none" xmlns="http://www.w3.org/2000/svg">
<path d="M120.12 0C53.7842 0 0 53.8036 0 120.12C0 186.475 53.7842 240.24 120.12 240.24C186.456 240.24 240.24 186.475 240.24 120.12C240.24 53.8036 186.456 0 120.12 0ZM120.12 53.279C131.355 53.279 140.463 62.3868 140.463 73.6219C140.463 84.857 131.355 93.9648 120.12 93.9648C108.885 93.9648 99.7771 84.857 99.7771 73.6219C99.7771 62.3868 108.885 53.279 120.12 53.279ZM147.244 176.305C147.244 179.515 144.641 182.117 141.432 182.117H98.8084C95.5986 182.117 92.9961 179.515 92.9961 176.305V164.681C92.9961 161.471 95.5986 158.868 98.8084 158.868H104.621V127.87H98.8084C95.5986 127.87 92.9961 125.267 92.9961 122.057V110.433C92.9961 107.223 95.5986 104.621 98.8084 104.621H129.807C133.017 104.621 135.619 107.223 135.619 110.433V158.868H141.432C144.641 158.868 147.244 161.471 147.244 164.681V176.305Z" fill="black"/>
</svg>
