<svg width="52" height="52" viewBox="0 0 52 52" fill="none" xmlns="http://www.w3.org/2000/svg">
<path d="M37.6999 47.6667C28.854 47.6552 20.3738 44.1361 14.1188 37.8811C7.86381 31.6261 4.34472 23.1459 4.33325 14.3C4.33325 11.6567 5.38331 9.1216 7.25242 7.25249C9.12153 5.38337 11.6566 4.33332 14.2999 4.33332C14.8597 4.32905 15.4185 4.37985 15.9683 4.48498C16.4998 4.56363 17.0223 4.69426 17.5283 4.87498C17.8841 4.99985 18.2012 5.21544 18.4482 5.50044C18.6952 5.78544 18.8636 6.12998 18.9366 6.49998L21.9049 19.5C21.9849 19.8529 21.9753 20.2201 21.8769 20.5683C21.7785 20.9165 21.5945 21.2345 21.3416 21.4933C21.0599 21.7967 21.0383 21.8183 18.3733 23.205C20.5074 27.8868 24.2519 31.6467 28.9249 33.8C30.3333 31.1133 30.3549 31.0917 30.6583 30.81C30.917 30.5571 31.2351 30.3731 31.5832 30.2747C31.9314 30.1763 32.2987 30.1666 32.6516 30.2467L45.6516 33.215C46.0097 33.2981 46.3409 33.471 46.6138 33.7173C46.8867 33.9637 47.0924 34.2755 47.2116 34.6233C47.3945 35.1376 47.5322 35.6668 47.6233 36.205C47.7104 36.7495 47.7539 37.3002 47.7533 37.8517C47.7133 40.4837 46.6337 42.993 44.7502 44.8319C42.8667 46.6708 40.3321 47.6898 37.6999 47.6667Z" fill="white"/>
</svg>
