<svg width="121" height="138" viewBox="0 0 121 138" fill="none" xmlns="http://www.w3.org/2000/svg">
<path d="M60.06 68.64C79.0164 68.64 94.38 53.2764 94.38 34.32C94.38 15.3636 79.0164 0 60.06 0C41.1036 0 25.74 15.3636 25.74 34.32C25.74 53.2764 41.1036 68.64 60.06 68.64ZM84.084 77.22H79.6063C73.6539 79.9549 67.0312 81.51 60.06 81.51C53.0887 81.51 46.4929 79.9549 40.5137 77.22H36.036C16.1411 77.22 0 93.3611 0 113.256V124.41C0 131.515 5.76469 137.28 12.87 137.28H107.25C114.355 137.28 120.12 131.515 120.12 124.41V113.256C120.12 93.3611 103.979 77.22 84.084 77.22Z" fill="black"/>
</svg>
